<svg fill="#000" height="800" width="800" version="1.1" id="Layer_1" xmlns="http://www.w3.org/2000/svg" viewBox="0 0 512 512" xml:space="preserve"><path d="M332.8 460.8h-25.6v-42.667c0-4.71-3.814-8.533-8.533-8.533s-8.533 3.823-8.533 8.533v51.2a8.53 8.53 0 008.533 8.533H332.8c16.051 0 22.059 9.481 24.294 17.067H247.467c-4.719 0-8.533 3.823-8.533 8.533s3.814 8.533 8.533 8.533h119.467a8.53 8.53 0 008.533-8.533c0-14.753-8.918-42.666-42.667-42.666zm-221.611 0h-.094c-4.702 0-8.482 3.823-8.482 8.533s3.857 8.533 8.576 8.533c4.71 0 8.533-3.823 8.533-8.533s-3.822-8.533-8.533-8.533z"/><path d="M247.467 477.867h17.067c4.719 0 8.533-3.823 8.533-8.533s-3.814-8.533-8.533-8.533h-17.067c-4.719 0-8.533 3.823-8.533 8.533s3.814 8.533 8.533 8.533zm-51.2-256H25.6c-14.114 0-25.6 11.486-25.6 25.6V486.4C0 500.514 11.486 512 25.6 512h170.667c14.114 0 25.6-11.486 25.6-25.6V247.467c0-14.114-11.486-25.6-25.6-25.6zM204.8 486.4c0 4.702-3.823 8.533-8.533 8.533H25.6c-4.71 0-8.533-3.831-8.533-8.533V247.467c0-4.702 3.823-8.533 8.533-8.533h170.667c4.71 0 8.533 3.831 8.533 8.533V486.4zM377.967 53.7a8.525 8.525 0 000 12.066l68.267 68.267a8.51 8.51 0 006.033 2.5 8.509 8.509 0 006.033-2.5 8.523 8.523 0 000-12.066L390.033 53.7a8.525 8.525 0 00-12.066 0z"/><path d="M469.333 0H42.667C19.14 0 0 19.14 0 42.667v153.6c0 4.71 3.814 8.533 8.533 8.533s8.533-3.823 8.533-8.533v-153.6c0-14.114 11.486-25.6 25.6-25.6h426.667c14.114 0 25.6 11.486 25.6 25.6v298.667c0 15.044-12.049 34.133-25.6 34.133H247.467c-4.719 0-8.533 3.823-8.533 8.533s3.814 8.533 8.533 8.533h221.867c24.021 0 42.667-27.529 42.667-51.2V42.667C512 19.14 492.86 0 469.333 0z"/><path d="M256 358.4c9.412 0 17.067-7.654 17.067-17.067 0-9.412-7.654-17.067-17.067-17.067-9.412 0-17.067 7.654-17.067 17.067S246.588 358.4 256 358.4zm-17.067-59.733a8.53 8.53 0 008.533 8.533h221.867c4.719 0 8.533-3.823 8.533-8.533s-3.814-8.533-8.533-8.533H247.467a8.53 8.53 0 00-8.534 8.533zM452.267 85.333a8.509 8.509 0 006.033-2.5 8.523 8.523 0 000-12.066L441.233 53.7a8.523 8.523 0 00-12.066 0 8.525 8.525 0 000 12.066l17.067 17.067a8.509 8.509 0 006.033 2.5z"/></svg>