<svg width="800" height="800" viewBox="0 0 32 32" xmlns="http://www.w3.org/2000/svg"><path d="M.682 9.431l14.847 8.085a1 1 0 00.953.002l15.003-8.085a.999.999 0 00-.022-1.772L16.615.121a1.005 1.005 0 00-.902-.002L.711 7.659a1 1 0 00-.03 1.772zm15.479-7.297L28.853 8.58 16.01 15.501 3.317 8.589zM31.292 15.01l-2.968-1.507-2.142 1.155 2.5 1.27-12.842 6.921-12.694-6.912 2.666-1.34-2.136-1.164-3.135 1.575a1 1 0 00-.03 1.772l14.847 8.085a1 1 0 00.953.002l15.003-8.085a.999.999 0 00-.021-1.772zm0 7l-2.811-1.382-2.142 1.155 2.344 1.145-12.843 6.921-12.694-6.912 2.478-1.121-2.136-1.164-2.947 1.357a1 1 0 00-.03 1.772l14.847 8.085a1 1 0 00.954.002l15.003-8.085a.999.999 0 00-.021-1.772z"/></svg>